<svg xmlns="http://www.w3.org/2000/svg" width="920.00" height="170.00" viewBox="0 0 920.00 170.00">
  <defs>
    <marker id="line-end-open-chevron" markerWidth="10" markerHeight="7" refX="9" refY="3.5" orient="auto">
      <polyline points="0 0, 10 3.5, 0 7" fill="none" stroke="#C0C0D8" stroke-width="1.50"/>
    </marker>
    <marker id="line-end-hollow-triangle" markerWidth="10" markerHeight="7" refX="9" refY="3.5" orient="auto">
      <polygon points="0 0, 10 3.5, 0 7" fill="#1E1E2E" stroke="#C0C0D8" stroke-width="1.50"/>
    </marker>
    <marker id="line-end-filled-arrow" markerWidth="10" markerHeight="7" refX="9" refY="3.5" orient="auto">
      <polygon points="0 0, 10 3.5, 0 7" fill="#C0C0D8" stroke="#C0C0D8" stroke-width="1.50"/>
    </marker>
    <marker id="line-end-hollow-triangle-crossbar" markerWidth="10" markerHeight="7" refX="9" refY="3.5" orient="auto">
      <polygon points="0 0, 10 3.5, 0 7" fill="#1E1E2E" stroke="#C0C0D8" stroke-width="1.50"/>
      <line x1="7" y1="0" x2="7" y2="7" stroke="#C0C0D8" stroke-width="1.50"/>
    </marker>
    <marker id="line-end-hollow-diamond" markerWidth="14" markerHeight="8" refX="13" refY="4" orient="auto">
      <polygon points="1 4, 7 0, 13 4, 7 8" fill="#1E1E2E" stroke="#C0C0D8" stroke-width="1.50"/>
    </marker>
    <marker id="line-end-filled-diamond" markerWidth="14" markerHeight="8" refX="13" refY="4" orient="auto">
      <polygon points="1 4, 7 0, 13 4, 7 8" fill="#C0C0D8" stroke="#C0C0D8" stroke-width="1.50"/>
    </marker>
    <marker id="line-end-circle" markerWidth="10" markerHeight="10" refX="9" refY="5" orient="auto">
      <circle cx="5" cy="5" r="4" fill="#1E1E2E" stroke="#C0C0D8" stroke-width="1.50"/>
    </marker>
    <marker id="line-end-bar" markerWidth="4" markerHeight="12" refX="2" refY="6" orient="auto">
      <line x1="2" y1="0" x2="2" y2="12" stroke="#C0C0D8" stroke-width="1.50"/>
    </marker>
    <filter id="label-bg" x="-0.05" y="-0.05" width="1.1" height="1.1">
      <feFlood flood-color="#1E1E2E"/>
      <feComposite in="SourceGraphic" operator="over"/>
    </filter>
  </defs>
  <rect x="20.00" y="63.24" width="120.00" height="50.00" fill="#1E1E2E" stroke="#C0C0D8" stroke-width="1.50"/>
  <text x="80.00" y="88.24" font-family="Noto Sans, sans-serif" font-size="14.00" font-weight="bold" fill="#C0C0D8" text-anchor="middle" dominant-baseline="middle">Ingest</text>
  <rect x="210.00" y="63.24" width="120.00" height="50.00" fill="#1E1E2E" stroke="#C0C0D8" stroke-width="1.50"/>
  <text x="270.00" y="88.24" font-family="Noto Sans, sans-serif" font-size="14.00" font-weight="bold" fill="#C0C0D8" text-anchor="middle" dominant-baseline="middle">Validate</text>
  <rect x="400.00" y="20.00" width="120.00" height="50.00" fill="#1E1E2E" stroke="#C0C0D8" stroke-width="1.50"/>
  <text x="460.00" y="45.00" font-family="Noto Sans, sans-serif" font-size="14.00" font-weight="bold" fill="#C0C0D8" text-anchor="middle" dominant-baseline="middle">Transform</text>
  <rect x="590.00" y="24.80" width="120.00" height="50.00" fill="#1E1E2E" stroke="#C0C0D8" stroke-width="1.50"/>
  <text x="650.00" y="49.80" font-family="Noto Sans, sans-serif" font-size="14.00" font-weight="bold" fill="#C0C0D8" text-anchor="middle" dominant-baseline="middle">Render</text>
  <rect x="780.00" y="28.00" width="120.00" height="50.00" fill="#1E1E2E" stroke="#C0C0D8" stroke-width="1.50"/>
  <text x="840.00" y="53.00" font-family="Noto Sans, sans-serif" font-size="14.00" font-weight="bold" fill="#C0C0D8" text-anchor="middle" dominant-baseline="middle">Publish</text>
  <rect x="400.00" y="100.00" width="120.00" height="50.00" fill="#1E1E2E" stroke="#C0C0D8" stroke-width="1.50"/>
  <text x="460.00" y="125.00" font-family="Noto Sans, sans-serif" font-size="14.00" font-weight="bold" fill="#C0C0D8" text-anchor="middle" dominant-baseline="middle">Report</text>
  <path d="M 140.00 88.24 L 210.00 88.24" fill="none" stroke="#C0C0D8" stroke-width="1.50" marker-end="url(#line-end-filled-arrow)"/>
  <path d="M 330.00 75.74 L 336.00 75.74 A 4.00 4.00 0 0 0 340.00 71.74 L 340.00 49.00 A 4.00 4.00 0 0 1 344.00 45.00 L 400.00 45.00" fill="none" stroke="#C0C0D8" stroke-width="1.50" marker-end="url(#line-end-filled-arrow)"/>
  <path d="M 520.00 45.00 L 527.60 45.00 A 2.40 2.40 0 0 1 530.00 47.40 L 530.00 47.40 A 2.40 2.40 0 0 0 532.40 49.80 L 590.00 49.80" fill="none" stroke="#C0C0D8" stroke-width="1.50" marker-end="url(#line-end-filled-arrow)"/>
  <path d="M 710.00 49.80 L 718.40 49.80 A 1.60 1.60 0 0 1 720.00 51.40 L 720.00 51.40 A 1.60 1.60 0 0 0 721.60 53.00 L 780.00 53.00" fill="none" stroke="#C0C0D8" stroke-width="1.50" marker-end="url(#line-end-filled-arrow)"/>
  <path d="M 330.00 100.74 L 336.00 100.74 A 4.00 4.00 0 0 1 340.00 104.74 L 340.00 121.00 A 4.00 4.00 0 0 0 344.00 125.00 L 400.00 125.00" fill="none" stroke="#C0C0D8" stroke-width="1.50" marker-end="url(#line-end-filled-arrow)"/>
</svg>
