<svg xmlns="http://www.w3.org/2000/svg" width="554.00" height="258.00" viewBox="0 0 554.00 258.00">
  <defs>
    <marker id="line-end-open-chevron" markerWidth="10" markerHeight="7" refX="9" refY="3.5" orient="auto">
      <polyline points="0 0, 10 3.5, 0 7" fill="none" stroke="#C0C0D8" stroke-width="1.50"/>
    </marker>
    <marker id="line-end-hollow-triangle" markerWidth="10" markerHeight="7" refX="9" refY="3.5" orient="auto">
      <polygon points="0 0, 10 3.5, 0 7" fill="#1E1E2E" stroke="#C0C0D8" stroke-width="1.50"/>
    </marker>
    <marker id="line-end-filled-arrow" markerWidth="10" markerHeight="7" refX="9" refY="3.5" orient="auto">
      <polygon points="0 0, 10 3.5, 0 7" fill="#C0C0D8" stroke="#C0C0D8" stroke-width="1.50"/>
    </marker>
    <marker id="line-end-hollow-triangle-crossbar" markerWidth="10" markerHeight="7" refX="9" refY="3.5" orient="auto">
      <polygon points="0 0, 10 3.5, 0 7" fill="#1E1E2E" stroke="#C0C0D8" stroke-width="1.50"/>
      <line x1="7" y1="0" x2="7" y2="7" stroke="#C0C0D8" stroke-width="1.50"/>
    </marker>
    <marker id="line-end-hollow-diamond" markerWidth="14" markerHeight="8" refX="13" refY="4" orient="auto">
      <polygon points="1 4, 7 0, 13 4, 7 8" fill="#1E1E2E" stroke="#C0C0D8" stroke-width="1.50"/>
    </marker>
    <marker id="line-end-filled-diamond" markerWidth="14" markerHeight="8" refX="13" refY="4" orient="auto">
      <polygon points="1 4, 7 0, 13 4, 7 8" fill="#C0C0D8" stroke="#C0C0D8" stroke-width="1.50"/>
    </marker>
    <marker id="line-end-circle" markerWidth="10" markerHeight="10" refX="9" refY="5" orient="auto">
      <circle cx="5" cy="5" r="4" fill="#1E1E2E" stroke="#C0C0D8" stroke-width="1.50"/>
    </marker>
    <marker id="line-end-bar" markerWidth="4" markerHeight="12" refX="2" refY="6" orient="auto">
      <line x1="2" y1="0" x2="2" y2="12" stroke="#C0C0D8" stroke-width="1.50"/>
    </marker>
    <filter id="label-bg" x="-0.05" y="-0.05" width="1.1" height="1.1">
      <feFlood flood-color="#1E1E2E"/>
      <feComposite in="SourceGraphic" operator="over"/>
    </filter>
  </defs>
  <rect x="20.00" y="104.00" width="120.00" height="52.00" fill="#1E1E2E" stroke="#C0C0D8" stroke-width="1.50"/>
  <text x="80.00" y="130.00" font-family="Noto Sans, sans-serif" font-size="14.00" font-weight="bold" fill="#C0C0D8" text-anchor="middle" dominant-baseline="middle">Sensor</text>
  <rect x="280.00" y="20.00" width="254.00" height="218.00" fill="#1E1E2E" stroke="#C0C0D8" stroke-width="1.50"/>
  <text x="407.00" y="33.00" font-family="Noto Sans, sans-serif" font-size="14.00" font-weight="bold" fill="#C0C0D8" text-anchor="middle" dominant-baseline="middle">Controller</text>
  <rect x="382.00" y="76.00" width="120.00" height="50.00" fill="#1E1E2E" stroke="#C0C0D8" stroke-width="1.50"/>
  <text x="442.00" y="101.00" font-family="Noto Sans, sans-serif" font-size="14.00" font-weight="bold" fill="#C0C0D8" text-anchor="middle" dominant-baseline="middle">Driver</text>
  <rect x="382.00" y="156.00" width="120.00" height="50.00" fill="#1E1E2E" stroke="#C0C0D8" stroke-width="1.50"/>
  <text x="442.00" y="181.00" font-family="Noto Sans, sans-serif" font-size="14.00" font-weight="bold" fill="#C0C0D8" text-anchor="middle" dominant-baseline="middle">Logger</text>
  <path d="M 280.00 129.00 L 312.00 129.00 L 318.00 129.00 A 4.00 4.00 0 0 0 322.00 125.00 L 322.00 105.00 A 4.00 4.00 0 0 1 326.00 101.00 L 382.00 101.00" fill="none" stroke="#C0C0D8" stroke-width="1.50" marker-end="url(#line-end-filled-arrow)"/>
  <path d="M 280.00 129.00 L 312.00 129.00 L 318.00 129.00 A 4.00 4.00 0 0 1 322.00 133.00 L 322.00 177.00 A 4.00 4.00 0 0 0 326.00 181.00 L 382.00 181.00" fill="none" stroke="#C0C0D8" stroke-width="1.50" marker-end="url(#line-end-filled-arrow)"/>
  <path d="M 140.00 129.00 L 210.00 129.00 L 280.00 129.00" fill="none" stroke="#C0C0D8" stroke-width="1.50" marker-end="url(#line-end-filled-arrow)"/>
  <rect x="276.00" y="125.00" width="8.00" height="8.00" fill="#C0C0D8" stroke="#1E1E2E" stroke-width="1.00"/>
  <text x="290.00" y="135.00" font-family="Noto Sans, sans-serif" font-size="12.00" fill="#C0C0D8" text-anchor="start" dominant-baseline="middle">dispatch</text>
  <text x="270.00" y="135.00" font-family="Noto Sans, sans-serif" font-size="12.00" fill="#C0C0D8" text-anchor="end" dominant-baseline="middle">command</text>
</svg>
