<svg xmlns="http://www.w3.org/2000/svg" width="584.00" height="495.89" viewBox="0 0 584.00 495.89">
  <defs>
    <marker id="line-end-open-chevron" markerWidth="10" markerHeight="7" refX="9" refY="3.5" orient="auto">
      <polyline points="0 0, 10 3.5, 0 7" fill="none" stroke="#C0C0D8" stroke-width="1.50"/>
    </marker>
    <marker id="line-end-hollow-triangle" markerWidth="10" markerHeight="7" refX="9" refY="3.5" orient="auto">
      <polygon points="0 0, 10 3.5, 0 7" fill="#1E1E2E" stroke="#C0C0D8" stroke-width="1.50"/>
    </marker>
    <marker id="line-end-filled-arrow" markerWidth="10" markerHeight="7" refX="9" refY="3.5" orient="auto">
      <polygon points="0 0, 10 3.5, 0 7" fill="#C0C0D8" stroke="#C0C0D8" stroke-width="1.50"/>
    </marker>
    <marker id="line-end-hollow-triangle-crossbar" markerWidth="10" markerHeight="7" refX="9" refY="3.5" orient="auto">
      <polygon points="0 0, 10 3.5, 0 7" fill="#1E1E2E" stroke="#C0C0D8" stroke-width="1.50"/>
      <line x1="7" y1="0" x2="7" y2="7" stroke="#C0C0D8" stroke-width="1.50"/>
    </marker>
    <marker id="line-end-hollow-diamond" markerWidth="14" markerHeight="8" refX="13" refY="4" orient="auto">
      <polygon points="1 4, 7 0, 13 4, 7 8" fill="#1E1E2E" stroke="#C0C0D8" stroke-width="1.50"/>
    </marker>
    <marker id="line-end-filled-diamond" markerWidth="14" markerHeight="8" refX="13" refY="4" orient="auto">
      <polygon points="1 4, 7 0, 13 4, 7 8" fill="#C0C0D8" stroke="#C0C0D8" stroke-width="1.50"/>
    </marker>
    <marker id="line-end-circle" markerWidth="10" markerHeight="10" refX="9" refY="5" orient="auto">
      <circle cx="5" cy="5" r="4" fill="#1E1E2E" stroke="#C0C0D8" stroke-width="1.50"/>
    </marker>
    <marker id="line-end-bar" markerWidth="4" markerHeight="12" refX="2" refY="6" orient="auto">
      <line x1="2" y1="0" x2="2" y2="12" stroke="#C0C0D8" stroke-width="1.50"/>
    </marker>
    <filter id="label-bg" x="-0.05" y="-0.05" width="1.1" height="1.1">
      <feFlood flood-color="#1E1E2E"/>
      <feComposite in="SourceGraphic" operator="over"/>
    </filter>
  </defs>
  <rect x="20.00" y="152.50" width="120.00" height="100.00" fill="#1E1E2E" stroke="#C0C0D8" stroke-width="1.50"/>
  <text x="80.00" y="202.50" font-family="Noto Sans, sans-serif" font-size="14.00" font-weight="bold" fill="#C0C0D8" text-anchor="middle" dominant-baseline="middle">Entry</text>
  <rect x="20.00" y="425.89" width="120.00" height="50.00" fill="#1E1E2E" stroke="#C0C0D8" stroke-width="1.50"/>
  <text x="80.00" y="450.89" font-family="Noto Sans, sans-serif" font-size="14.00" font-weight="bold" fill="#C0C0D8" text-anchor="middle" dominant-baseline="middle">Isolated</text>
  <rect x="20.00" y="345.89" width="120.00" height="50.00" fill="#1E1E2E" stroke="#C0C0D8" stroke-width="1.50"/>
  <text x="80.00" y="370.89" font-family="Noto Sans, sans-serif" font-size="14.00" font-weight="bold" fill="#C0C0D8" text-anchor="middle" dominant-baseline="middle">FarSource</text>
  <rect x="240.00" y="20.00" width="120.00" height="50.00" fill="#1E1E2E" stroke="#C0C0D8" stroke-width="1.50"/>
  <text x="300.00" y="45.00" font-family="Noto Sans, sans-serif" font-size="14.00" font-weight="bold" fill="#C0C0D8" text-anchor="middle" dominant-baseline="middle">HubA</text>
  <rect x="240.00" y="100.00" width="120.00" height="50.00" fill="#1E1E2E" stroke="#C0C0D8" stroke-width="1.50"/>
  <text x="300.00" y="125.00" font-family="Noto Sans, sans-serif" font-size="14.00" font-weight="bold" fill="#C0C0D8" text-anchor="middle" dominant-baseline="middle">HubB</text>
  <rect x="240.00" y="180.00" width="120.00" height="50.00" fill="#1E1E2E" stroke="#C0C0D8" stroke-width="1.50"/>
  <text x="300.00" y="205.00" font-family="Noto Sans, sans-serif" font-size="14.00" font-weight="bold" fill="#C0C0D8" text-anchor="middle" dominant-baseline="middle">HubC</text>
  <rect x="240.00" y="260.00" width="120.00" height="50.00" fill="#1E1E2E" stroke="#C0C0D8" stroke-width="1.50"/>
  <text x="300.00" y="285.00" font-family="Noto Sans, sans-serif" font-size="14.00" font-weight="bold" fill="#C0C0D8" text-anchor="middle" dominant-baseline="middle">HubD</text>
  <rect x="240.00" y="340.00" width="120.00" height="50.00" fill="#1E1E2E" stroke="#C0C0D8" stroke-width="1.50"/>
  <text x="300.00" y="365.00" font-family="Noto Sans, sans-serif" font-size="14.00" font-weight="bold" fill="#C0C0D8" text-anchor="middle" dominant-baseline="middle">HubE</text>
  <rect x="444.00" y="150.37" width="120.00" height="100.00" fill="#1E1E2E" stroke="#C0C0D8" stroke-width="1.50"/>
  <text x="504.00" y="200.37" font-family="Noto Sans, sans-serif" font-size="14.00" font-weight="bold" fill="#C0C0D8" text-anchor="middle" dominant-baseline="middle">Sink</text>
  <path d="M 140.00 162.50 L 146.00 162.50 A 4.00 4.00 0 0 0 150.00 158.50 L 150.00 49.00 A 4.00 4.00 0 0 1 154.00 45.00 L 240.00 45.00" fill="none" stroke="#C0C0D8" stroke-width="1.50" marker-end="url(#line-end-filled-arrow)"/>
  <path d="M 140.00 182.50 L 162.00 182.50 A 4.00 4.00 0 0 0 166.00 178.50 L 166.00 129.00 A 4.00 4.00 0 0 1 170.00 125.00 L 240.00 125.00" fill="none" stroke="#C0C0D8" stroke-width="1.50" marker-end="url(#line-end-filled-arrow)"/>
  <path d="M 140.00 202.50 L 148.75 202.50 A 1.25 1.25 0 0 1 150.00 203.75 L 150.00 203.75 A 1.25 1.25 0 0 0 151.25 205.00 L 240.00 205.00" fill="none" stroke="#C0C0D8" stroke-width="1.50" marker-end="url(#line-end-filled-arrow)"/>
  <path d="M 140.00 222.50 L 162.00 222.50 A 4.00 4.00 0 0 1 166.00 226.50 L 166.00 281.00 A 4.00 4.00 0 0 0 170.00 285.00 L 240.00 285.00" fill="none" stroke="#C0C0D8" stroke-width="1.50" marker-end="url(#line-end-filled-arrow)"/>
  <path d="M 140.00 242.50 L 146.00 242.50 A 4.00 4.00 0 0 1 150.00 246.50 L 150.00 348.50 A 4.00 4.00 0 0 0 154.00 352.50 L 240.00 352.50" fill="none" stroke="#C0C0D8" stroke-width="1.50" marker-end="url(#line-end-filled-arrow)"/>
  <path d="M 360.00 45.00 L 382.00 45.00 A 4.00 4.00 0 0 1 386.00 49.00 L 386.00 156.37 A 4.00 4.00 0 0 0 390.00 160.37 L 444.00 160.37" fill="none" stroke="#C0C0D8" stroke-width="1.50" marker-end="url(#line-end-filled-arrow)"/>
  <path d="M 360.00 125.00 L 366.00 125.00 A 4.00 4.00 0 0 1 370.00 129.00 L 370.00 176.37 A 4.00 4.00 0 0 0 374.00 180.37 L 444.00 180.37" fill="none" stroke="#C0C0D8" stroke-width="1.50" marker-end="url(#line-end-filled-arrow)"/>
  <path d="M 360.00 205.00 L 367.69 205.00 A 2.31 2.31 0 0 0 370.00 202.69 L 370.00 202.69 A 2.31 2.31 0 0 1 372.31 200.37 L 444.00 200.37" fill="none" stroke="#C0C0D8" stroke-width="1.50" marker-end="url(#line-end-filled-arrow)"/>
  <path d="M 360.00 285.00 L 366.00 285.00 A 4.00 4.00 0 0 0 370.00 281.00 L 370.00 224.37 A 4.00 4.00 0 0 1 374.00 220.37 L 444.00 220.37" fill="none" stroke="#C0C0D8" stroke-width="1.50" marker-end="url(#line-end-filled-arrow)"/>
  <path d="M 360.00 365.00 L 382.00 365.00 A 4.00 4.00 0 0 0 386.00 361.00 L 386.00 244.37 A 4.00 4.00 0 0 1 390.00 240.37 L 444.00 240.37" fill="none" stroke="#C0C0D8" stroke-width="1.50" marker-end="url(#line-end-filled-arrow)"/>
  <path d="M 140.00 370.89 L 146.69 370.89 A 3.31 3.31 0 0 1 150.00 374.19 L 150.00 374.19 A 3.31 3.31 0 0 0 153.31 377.50 L 240.00 377.50" fill="none" stroke="#C0C0D8" stroke-width="1.50" marker-end="url(#line-end-filled-arrow)"/>
</svg>
