<svg xmlns="http://www.w3.org/2000/svg" width="310.00" height="364.00" viewBox="0 0 310.00 364.00">
  <defs>
    <marker id="line-end-open-chevron" markerWidth="10" markerHeight="7" refX="9" refY="3.5" orient="auto">
      <polyline points="0 0, 10 3.5, 0 7" fill="none" stroke="#C0C0D8" stroke-width="1.50"/>
    </marker>
    <marker id="line-end-hollow-triangle" markerWidth="10" markerHeight="7" refX="9" refY="3.5" orient="auto">
      <polygon points="0 0, 10 3.5, 0 7" fill="#1E1E2E" stroke="#C0C0D8" stroke-width="1.50"/>
    </marker>
    <marker id="line-end-filled-arrow" markerWidth="10" markerHeight="7" refX="9" refY="3.5" orient="auto">
      <polygon points="0 0, 10 3.5, 0 7" fill="#C0C0D8" stroke="#C0C0D8" stroke-width="1.50"/>
    </marker>
    <marker id="line-end-hollow-triangle-crossbar" markerWidth="10" markerHeight="7" refX="9" refY="3.5" orient="auto">
      <polygon points="0 0, 10 3.5, 0 7" fill="#1E1E2E" stroke="#C0C0D8" stroke-width="1.50"/>
      <line x1="7" y1="0" x2="7" y2="7" stroke="#C0C0D8" stroke-width="1.50"/>
    </marker>
    <marker id="line-end-hollow-diamond" markerWidth="14" markerHeight="8" refX="13" refY="4" orient="auto">
      <polygon points="1 4, 7 0, 13 4, 7 8" fill="#1E1E2E" stroke="#C0C0D8" stroke-width="1.50"/>
    </marker>
    <marker id="line-end-filled-diamond" markerWidth="14" markerHeight="8" refX="13" refY="4" orient="auto">
      <polygon points="1 4, 7 0, 13 4, 7 8" fill="#C0C0D8" stroke="#C0C0D8" stroke-width="1.50"/>
    </marker>
    <marker id="line-end-circle" markerWidth="10" markerHeight="10" refX="9" refY="5" orient="auto">
      <circle cx="5" cy="5" r="4" fill="#1E1E2E" stroke="#C0C0D8" stroke-width="1.50"/>
    </marker>
    <marker id="line-end-bar" markerWidth="4" markerHeight="12" refX="2" refY="6" orient="auto">
      <line x1="2" y1="0" x2="2" y2="12" stroke="#C0C0D8" stroke-width="1.50"/>
    </marker>
    <filter id="label-bg" x="-0.05" y="-0.05" width="1.1" height="1.1">
      <feFlood flood-color="#1E1E2E"/>
      <feComposite in="SourceGraphic" operator="over"/>
    </filter>
  </defs>
  <rect x="20.00" y="20.00" width="120.00" height="50.00" fill="#1E1E2E" stroke="#C0C0D8" stroke-width="1.50"/>
  <text x="80.00" y="45.00" font-family="Noto Sans, sans-serif" font-size="14.00" font-weight="bold" fill="#C0C0D8" text-anchor="middle" dominant-baseline="middle">MonitorA</text>
  <rect x="170.00" y="20.00" width="120.00" height="50.00" fill="#1E1E2E" stroke="#C0C0D8" stroke-width="1.50"/>
  <text x="230.00" y="45.00" font-family="Noto Sans, sans-serif" font-size="14.00" font-weight="bold" fill="#C0C0D8" text-anchor="middle" dominant-baseline="middle">MonitorB</text>
  <rect x="53.00" y="140.00" width="204.00" height="84.00" fill="#1E1E2E" stroke="#C0C0D8" stroke-width="1.50"/>
  <text x="155.00" y="185.00" font-family="Noto Sans, sans-serif" font-size="14.00" font-weight="bold" fill="#C0C0D8" text-anchor="middle" dominant-baseline="middle">Hub</text>
  <rect x="20.00" y="294.00" width="120.00" height="50.00" fill="#1E1E2E" stroke="#C0C0D8" stroke-width="1.50"/>
  <text x="80.00" y="319.00" font-family="Noto Sans, sans-serif" font-size="14.00" font-weight="bold" fill="#C0C0D8" text-anchor="middle" dominant-baseline="middle">ControlA</text>
  <rect x="170.00" y="294.00" width="120.00" height="50.00" fill="#1E1E2E" stroke="#C0C0D8" stroke-width="1.50"/>
  <text x="230.00" y="319.00" font-family="Noto Sans, sans-serif" font-size="14.00" font-weight="bold" fill="#C0C0D8" text-anchor="middle" dominant-baseline="middle">ControlB</text>
  <path d="M 80.00 70.00 L 80.00 76.00 A 4.00 4.00 0 0 1 76.00 80.00 L 67.00 80.00 A 4.00 4.00 0 0 0 63.00 84.00 L 63.00 140.00" fill="none" stroke="#C0C0D8" stroke-width="1.50" marker-end="url(#line-end-filled-arrow)"/>
  <rect x="59.00" y="136.00" width="8.00" height="8.00" fill="#C0C0D8" stroke="#1E1E2E" stroke-width="1.00"/>
  <text x="63.00" y="162.00" font-family="Noto Sans, sans-serif" font-size="12.00" fill="#C0C0D8" text-anchor="middle" dominant-baseline="middle" textLength="98.00" lengthAdjust="spacingAndGlyphs">a rather long status feed</text>
  <path d="M 230.00 70.00 L 230.00 76.00 A 4.00 4.00 0 0 0 234.00 80.00 L 243.00 80.00 A 4.00 4.00 0 0 1 247.00 84.00 L 247.00 140.00" fill="none" stroke="#C0C0D8" stroke-width="1.50" marker-end="url(#line-end-filled-arrow)"/>
  <rect x="243.00" y="136.00" width="8.00" height="8.00" fill="#C0C0D8" stroke="#1E1E2E" stroke-width="1.00"/>
  <text x="247.00" y="162.00" font-family="Noto Sans, sans-serif" font-size="12.00" fill="#C0C0D8" text-anchor="middle" dominant-baseline="middle">alert</text>
  <path d="M 63.00 224.00 L 63.00 230.00 A 4.00 4.00 0 0 0 67.00 234.00 L 76.00 234.00 A 4.00 4.00 0 0 1 80.00 238.00 L 80.00 294.00" fill="none" stroke="#C0C0D8" stroke-width="1.50" marker-end="url(#line-end-filled-arrow)"/>
  <rect x="59.00" y="220.00" width="8.00" height="8.00" fill="#C0C0D8" stroke="#1E1E2E" stroke-width="1.00"/>
  <text x="63.00" y="214.00" font-family="Noto Sans, sans-serif" font-size="12.00" fill="#C0C0D8" text-anchor="middle" dominant-baseline="middle" textLength="98.00" lengthAdjust="spacingAndGlyphs">primary control command</text>
  <path d="M 247.00 224.00 L 247.00 230.00 A 4.00 4.00 0 0 1 243.00 234.00 L 234.00 234.00 A 4.00 4.00 0 0 0 230.00 238.00 L 230.00 294.00" fill="none" stroke="#C0C0D8" stroke-width="1.50" marker-end="url(#line-end-filled-arrow)"/>
  <rect x="243.00" y="220.00" width="8.00" height="8.00" fill="#C0C0D8" stroke="#1E1E2E" stroke-width="1.00"/>
  <text x="247.00" y="214.00" font-family="Noto Sans, sans-serif" font-size="12.00" fill="#C0C0D8" text-anchor="middle" dominant-baseline="middle">backup</text>
</svg>
