<svg xmlns="http://www.w3.org/2000/svg" width="577.60" height="330.00" viewBox="0 0 577.60 330.00">
  <defs>
    <marker id="line-end-open-chevron" markerWidth="10" markerHeight="7" refX="9" refY="3.5" orient="auto">
      <polyline points="0 0, 10 3.5, 0 7" fill="none" stroke="#C0C0D8" stroke-width="1.50"/>
    </marker>
    <marker id="line-end-hollow-triangle" markerWidth="10" markerHeight="7" refX="9" refY="3.5" orient="auto">
      <polygon points="0 0, 10 3.5, 0 7" fill="#1E1E2E" stroke="#C0C0D8" stroke-width="1.50"/>
    </marker>
    <marker id="line-end-filled-arrow" markerWidth="10" markerHeight="7" refX="9" refY="3.5" orient="auto">
      <polygon points="0 0, 10 3.5, 0 7" fill="#C0C0D8" stroke="#C0C0D8" stroke-width="1.50"/>
    </marker>
    <marker id="line-end-hollow-triangle-crossbar" markerWidth="10" markerHeight="7" refX="9" refY="3.5" orient="auto">
      <polygon points="0 0, 10 3.5, 0 7" fill="#1E1E2E" stroke="#C0C0D8" stroke-width="1.50"/>
      <line x1="7" y1="0" x2="7" y2="7" stroke="#C0C0D8" stroke-width="1.50"/>
    </marker>
    <marker id="line-end-hollow-diamond" markerWidth="14" markerHeight="8" refX="13" refY="4" orient="auto">
      <polygon points="1 4, 7 0, 13 4, 7 8" fill="#1E1E2E" stroke="#C0C0D8" stroke-width="1.50"/>
    </marker>
    <marker id="line-end-filled-diamond" markerWidth="14" markerHeight="8" refX="13" refY="4" orient="auto">
      <polygon points="1 4, 7 0, 13 4, 7 8" fill="#C0C0D8" stroke="#C0C0D8" stroke-width="1.50"/>
    </marker>
    <marker id="line-end-circle" markerWidth="10" markerHeight="10" refX="9" refY="5" orient="auto">
      <circle cx="5" cy="5" r="4" fill="#1E1E2E" stroke="#C0C0D8" stroke-width="1.50"/>
    </marker>
    <marker id="line-end-bar" markerWidth="4" markerHeight="12" refX="2" refY="6" orient="auto">
      <line x1="2" y1="0" x2="2" y2="12" stroke="#C0C0D8" stroke-width="1.50"/>
    </marker>
    <filter id="label-bg" x="-0.05" y="-0.05" width="1.1" height="1.1">
      <feFlood flood-color="#1E1E2E"/>
      <feComposite in="SourceGraphic" operator="over"/>
    </filter>
  </defs>
  <rect x="20.00" y="109.00" width="140.00" height="112.00" fill="#1E1E2E" stroke="#C0C0D8" stroke-width="1.50"/>
  <text x="90.00" y="122.00" font-family="Noto Sans, sans-serif" font-size="14.00" font-weight="bold" fill="#C0C0D8" text-anchor="middle" dominant-baseline="middle" textLength="128.00" lengthAdjust="spacingAndGlyphs">board : Motherboard</text>
  <rect x="230.00" y="20.00" width="120.00" height="50.00" fill="#1E1E2E" stroke="#C0C0D8" stroke-width="1.50"/>
  <text x="290.00" y="45.00" font-family="Noto Sans, sans-serif" font-size="14.00" font-weight="bold" fill="#C0C0D8" text-anchor="middle" dominant-baseline="middle">cpu : Cpu</text>
  <rect x="437.60" y="21.37" width="120.00" height="50.00" fill="#1E1E2E" stroke="#C0C0D8" stroke-width="1.50"/>
  <text x="497.60" y="46.37" font-family="Noto Sans, sans-serif" font-size="14.00" font-weight="bold" fill="#C0C0D8" text-anchor="middle" dominant-baseline="middle">memory : Ram</text>
  <rect x="230.00" y="100.00" width="120.00" height="50.00" fill="#1E1E2E" stroke="#C0C0D8" stroke-width="1.50"/>
  <text x="290.00" y="125.00" font-family="Noto Sans, sans-serif" font-size="14.00" font-weight="bold" fill="#C0C0D8" text-anchor="middle" dominant-baseline="middle" textLength="108.00" lengthAdjust="spacingAndGlyphs">storage : Ssd</text>
  <rect x="230.00" y="180.00" width="137.60" height="50.00" fill="#1E1E2E" stroke="#C0C0D8" stroke-width="1.50"/>
  <text x="298.80" y="205.00" font-family="Noto Sans, sans-serif" font-size="14.00" font-weight="bold" fill="#C0C0D8" text-anchor="middle" dominant-baseline="middle" textLength="125.60" lengthAdjust="spacingAndGlyphs">network : NetworkCard</text>
  <rect x="230.00" y="260.00" width="120.00" height="50.00" fill="#1E1E2E" stroke="#C0C0D8" stroke-width="1.50"/>
  <text x="290.00" y="285.00" font-family="Noto Sans, sans-serif" font-size="14.00" font-weight="bold" fill="#C0C0D8" text-anchor="middle" dominant-baseline="middle" textLength="108.00" lengthAdjust="spacingAndGlyphs">graphics : Gpu</text>
  <path d="M 160.00 151.00 L 166.00 151.00 A 4.00 4.00 0 0 0 170.00 147.00 L 170.00 49.00 A 4.00 4.00 0 0 1 174.00 45.00 L 230.00 45.00" fill="none" stroke="#C0C0D8" stroke-width="1.50" marker-end="url(#line-end-filled-arrow)"/>
  <rect x="156.00" y="147.00" width="8.00" height="8.00" fill="#C0C0D8" stroke="#1E1E2E" stroke-width="1.00"/>
  <path d="M 350.00 45.00 L 376.92 45.00 A 0.68 0.68 0 0 1 377.60 45.68 L 377.60 45.68 A 0.68 0.68 0 0 0 378.28 46.37 L 437.60 46.37" fill="none" stroke="#C0C0D8" stroke-width="1.50" marker-end="url(#line-end-filled-arrow)"/>
  <path d="M 160.00 171.00 L 182.00 171.00 A 4.00 4.00 0 0 0 186.00 167.00 L 186.00 129.00 A 4.00 4.00 0 0 1 190.00 125.00 L 230.00 125.00" fill="none" stroke="#C0C0D8" stroke-width="1.50" marker-end="url(#line-end-filled-arrow)"/>
  <rect x="156.00" y="167.00" width="8.00" height="8.00" fill="#C0C0D8" stroke="#1E1E2E" stroke-width="1.00"/>
  <path d="M 160.00 191.00 L 166.00 191.00 A 4.00 4.00 0 0 1 170.00 195.00 L 170.00 201.00 A 4.00 4.00 0 0 0 174.00 205.00 L 230.00 205.00" fill="none" stroke="#C0C0D8" stroke-width="1.50" marker-end="url(#line-end-filled-arrow)"/>
  <rect x="156.00" y="187.00" width="8.00" height="8.00" fill="#C0C0D8" stroke="#1E1E2E" stroke-width="1.00"/>
  <path d="M 160.00 211.00 L 166.00 211.00 A 4.00 4.00 0 0 1 170.00 215.00 L 170.00 281.00 A 4.00 4.00 0 0 0 174.00 285.00 L 230.00 285.00" fill="none" stroke="#C0C0D8" stroke-width="1.50" marker-end="url(#line-end-filled-arrow)"/>
  <rect x="156.00" y="207.00" width="8.00" height="8.00" fill="#C0C0D8" stroke="#1E1E2E" stroke-width="1.00"/>
</svg>
