<svg xmlns="http://www.w3.org/2000/svg" width="414.00" height="258.00" viewBox="0 0 414.00 258.00">
  <defs>
    <marker id="line-end-open-chevron" markerWidth="10" markerHeight="7" refX="9" refY="3.5" orient="auto">
      <polyline points="0 0, 10 3.5, 0 7" fill="none" stroke="#000000" stroke-width="1.00"/>
    </marker>
    <marker id="line-end-hollow-triangle" markerWidth="10" markerHeight="7" refX="9" refY="3.5" orient="auto">
      <polygon points="0 0, 10 3.5, 0 7" fill="#FFFFFF" stroke="#000000" stroke-width="1.00"/>
    </marker>
    <marker id="line-end-filled-arrow" markerWidth="10" markerHeight="7" refX="9" refY="3.5" orient="auto">
      <polygon points="0 0, 10 3.5, 0 7" fill="#000000" stroke="#000000" stroke-width="1.00"/>
    </marker>
    <marker id="line-end-hollow-triangle-crossbar" markerWidth="10" markerHeight="7" refX="9" refY="3.5" orient="auto">
      <polygon points="0 0, 10 3.5, 0 7" fill="#FFFFFF" stroke="#000000" stroke-width="1.00"/>
      <line x1="7" y1="0" x2="7" y2="7" stroke="#000000" stroke-width="1.00"/>
    </marker>
    <marker id="line-end-hollow-diamond" markerWidth="14" markerHeight="8" refX="13" refY="4" orient="auto">
      <polygon points="1 4, 7 0, 13 4, 7 8" fill="#FFFFFF" stroke="#000000" stroke-width="1.00"/>
    </marker>
    <marker id="line-end-filled-diamond" markerWidth="14" markerHeight="8" refX="13" refY="4" orient="auto">
      <polygon points="1 4, 7 0, 13 4, 7 8" fill="#000000" stroke="#000000" stroke-width="1.00"/>
    </marker>
    <marker id="line-end-circle" markerWidth="10" markerHeight="10" refX="9" refY="5" orient="auto">
      <circle cx="5" cy="5" r="4" fill="#FFFFFF" stroke="#000000" stroke-width="1.00"/>
    </marker>
    <marker id="line-end-bar" markerWidth="4" markerHeight="12" refX="2" refY="6" orient="auto">
      <line x1="2" y1="0" x2="2" y2="12" stroke="#000000" stroke-width="1.00"/>
    </marker>
    <filter id="label-bg" x="-0.05" y="-0.05" width="1.1" height="1.1">
      <feFlood flood-color="#FFFFFF"/>
      <feComposite in="SourceGraphic" operator="over"/>
    </filter>
  </defs>
  <rect x="20.00" y="20.00" width="374.00" height="138.00" fill="#FFFFFF" stroke="#000000" stroke-width="1.00"/>
  <text x="207.00" y="30.00" font-family="Noto Sans, sans-serif" font-size="12.00" font-weight="bold" fill="#000000" text-anchor="middle" dominant-baseline="middle">Module</text>
  <rect x="52.00" y="76.00" width="120.00" height="50.00" fill="#FFFFFF" stroke="#000000" stroke-width="1.00"/>
  <text x="112.00" y="86.00" font-family="Noto Sans, sans-serif" font-size="12.00" font-weight="bold" fill="#000000" text-anchor="middle" dominant-baseline="middle">Input</text>
  <rect x="242.00" y="76.00" width="120.00" height="50.00" fill="#FFFFFF" stroke="#000000" stroke-width="1.00"/>
  <text x="302.00" y="86.00" font-family="Noto Sans, sans-serif" font-size="12.00" font-weight="bold" fill="#000000" text-anchor="middle" dominant-baseline="middle">Output</text>
  <path d="M 172.00 101.00 L 242.00 101.00" fill="none" stroke="#000000" stroke-width="1.00" marker-end="url(#line-end-filled-arrow)"/>
  <rect x="20.00" y="188.00" width="120.00" height="50.00" fill="#FFFFFF" stroke="#000000" stroke-width="1.00"/>
  <text x="80.00" y="198.00" font-family="Noto Sans, sans-serif" font-size="12.00" font-weight="bold" fill="#000000" text-anchor="middle" dominant-baseline="middle">Consumer</text>
  <path d="M 80.00 158.00 L 80.00 188.00" fill="none" stroke="#000000" stroke-width="1.00" marker-end="url(#line-end-filled-arrow)"/>
</svg>
